<?xml version="1.0"?>
<svg xmlns:xlink="http://www.w3.org/1999/xlink" style="enable-background:new 0 0 512.001 512.001;"
    height="512px" id="Capa_1" version="1.1" viewBox="0 0 512.001 512.001" width="512px" x="0px"
    xmlns="http://www.w3.org/2000/svg" y="0px" xml:space="preserve"><g><g>
	<g>
		<path class="active-path"
            d="M509.026,2.885c-2.732-2.696-6.771-3.596-10.384-2.302L83.289,148.68c-14.43-8.824-32.733-10.89-49.52-3.939    C5.904,156.284-7.377,188.345,4.165,216.212c27.219,65.708,66.518,124.525,116.809,174.816s109.107,89.591,174.816,116.809    c6.824,2.826,13.897,4.164,20.861,4.164c21.475-0.001,41.894-12.726,50.609-33.769c5.864-14.158,5.31-29.396-0.299-42.48    L511.462,13.238C512.704,9.606,511.758,5.582,509.026,2.885z M146.179,147.489l44.02-15.694    c5.168,5.506,7.687,13.086,6.678,20.752c-0.89,6.75-4.354,12.751-9.755,16.896c-5.401,4.145-12.089,5.936-18.844,5.049    c-6.749-0.889-12.749-4.352-16.894-9.754C147.565,159.761,145.748,153.689,146.179,147.489z M348.782,470.577    c-7.322,17.678-27.664,26.103-45.338,18.779c-128.04-53.035-227.763-152.759-280.8-280.799c-3.547-8.563-3.547-17.994,0-26.558    c3.547-8.563,10.216-15.232,18.779-18.779s17.995-3.547,26.558,0s15.232,10.216,18.779,18.779    c22.701,54.807,55.481,103.865,97.429,145.813c41.948,41.948,91.006,74.727,145.813,97.429    C347.68,432.562,356.105,452.901,348.782,470.577z M437.625,167.329c-0.905-0.022-1.811-0.074-2.715-0.192    c-6.749-0.889-12.749-4.353-16.893-9.754c-4.145-5.401-5.938-12.094-5.05-18.843c1.835-13.934,14.66-23.776,28.599-21.944    c4.3,0.566,8.337,2.234,11.78,4.771L437.625,167.329z M459.993,101.923c-4.872-2.653-10.225-4.42-15.817-5.156    c-24.871-3.283-47.764,14.294-51.038,39.163c-1.586,12.046,1.614,23.989,9.011,33.629c7.125,9.285,17.325,15.351,28.831,17.201    l-19.876,58.119l-22.858-17.54c-4.381-3.36-10.66-2.536-14.021,1.846c-3.362,4.382-2.535,10.659,1.846,14.021l28.205,21.642    l-51.694,151.155c-4.336-3.77-9.329-6.924-14.922-9.241C231.68,362.863,149.14,280.323,105.243,174.345    c-1.526-3.686-3.422-7.108-5.609-10.26l26.779-9.548c0.935,8.068,4.032,15.764,9.105,22.375    c7.396,9.64,18.105,15.822,30.151,17.407c2.018,0.266,4.03,0.398,6.032,0.398c9.948,0,19.572-3.25,27.597-9.407    c9.641-7.398,15.822-18.105,17.409-30.153c1.423-10.815-1.101-21.527-6.768-30.401l124.307-44.322l4.711,11.374    c1.596,3.851,5.319,6.176,9.243,6.176c1.275,0,2.571-0.246,3.823-0.764c5.102-2.113,7.525-7.964,5.412-13.066l-4.326-10.445    l132.719-47.322L459.993,101.923z"
            data-old_color="#000000" data-original="#000000" fill="#FFFFFF" />
	</g>
</g><g>
	<g>
		<path class="active-path"
            d="M108,268.276c-0.03-0.047-0.113-0.174-0.145-0.22c-3.062-4.593-9.259-5.826-13.854-2.767    c-4.587,3.054-5.831,9.253-2.795,13.848c1.915,2.942,5.119,4.547,8.392,4.547c1.852,0,3.725-0.514,5.397-1.589    C109.641,279.108,110.986,272.921,108,268.276z"
            data-old_color="#000000" data-original="#000000" fill="#FFFFFF" />
	</g>
</g><g>
	<g>
		<path class="active-path"
            d="M92.791,243.433c-9.745-17.086-18.505-34.968-26.036-53.147c-2.113-5.104-7.966-7.524-13.065-5.411    c-5.103,2.113-7.525,7.963-5.411,13.065c7.85,18.951,16.982,37.591,27.14,55.401c1.845,3.234,5.221,5.048,8.695,5.048    c1.68,0,3.383-0.424,4.945-1.315C93.856,254.337,95.528,248.23,92.791,243.433z"
            data-old_color="#000000" data-original="#000000" fill="#FFFFFF" />
	</g>
</g><g>
	<g>
		<path class="active-path"
            d="M312.933,127.987c-1.982-0.262-3.995-0.394-5.983-0.394c-22.717,0-42.087,17.005-45.055,39.555    c-3.274,24.868,14.293,47.764,39.161,51.038c1.982,0.262,3.995,0.394,5.983,0.394c22.716,0,42.086-17.005,45.055-39.557    C355.367,154.156,337.8,131.261,312.933,127.987z M332.266,176.413c-1.664,12.637-12.509,22.166-25.227,22.166    c-1.118,0-2.253-0.074-3.372-0.222c-13.935-1.835-23.777-14.664-21.943-28.599c1.664-12.636,12.508-22.164,25.226-22.164    c1.118,0,2.253,0.074,3.372,0.222C324.256,149.652,334.1,162.48,332.266,176.413z"
            data-old_color="#000000" data-original="#000000" fill="#FFFFFF" />
	</g>
</g><g>
	<g>
		<path class="active-path"
            d="M310.331,252.374c-1.983-0.262-3.995-0.394-5.983-0.394c-22.717,0-42.087,17.005-45.055,39.556    c-1.587,12.047,1.613,23.989,9.01,33.63c7.396,9.64,18.104,15.822,30.151,17.409c1.981,0.261,3.993,0.392,5.98,0.392    c22.717,0,42.088-17.005,45.057-39.557C352.766,278.544,335.198,255.65,310.331,252.374z M329.664,300.801    c-1.664,12.637-12.51,22.166-25.228,22.166c-1.117,0-2.252-0.075-3.37-0.222c-6.75-0.89-12.75-4.354-16.895-9.755    c-4.145-5.401-5.938-12.093-5.049-18.844c1.664-12.636,12.509-22.165,25.226-22.165c1.118,0,2.253,0.074,3.372,0.222    C321.653,274.038,331.497,286.867,329.664,300.801z"
            data-old_color="#000000" data-original="#000000" fill="#FFFFFF" />
	</g>
</g><g>
	<g>
		<path class="active-path"
            d="M244.375,210.946l-30.736-4.047c-5.473-0.727-10.499,3.133-11.22,8.608c-0.722,5.476,3.133,10.499,8.608,11.22    l30.736,4.047c0.443,0.059,0.883,0.087,1.318,0.087c4.941,0,9.239-3.663,9.901-8.695    C253.705,216.691,249.851,211.667,244.375,210.946z"
            data-old_color="#000000" data-original="#000000" fill="#FFFFFF" />
	</g>
</g><g>
	<g>
		<path class="active-path"
            d="M228.79,284.743l-2.714-20.624c-0.721-5.476-5.743-9.332-11.219-8.609c-5.476,0.721-9.33,5.743-8.609,11.219l2.715,20.624    c0.662,5.033,4.959,8.696,9.901,8.696c0.435,0,0.875-0.028,1.317-0.087C225.657,295.241,229.511,290.219,228.79,284.743z"
            data-old_color="#000000" data-original="#000000" fill="#FFFFFF" />
	</g>
</g></g> </svg>
