<?xml version="1.0"?>
<svg xmlns:xlink="http://www.w3.org/1999/xlink" style="enable-background:new 0 0 512 512;"
    height="512px" id="Capa_1" version="1.1" viewBox="0 0 512 512" width="512px" x="0px"
    xmlns="http://www.w3.org/2000/svg" y="0px" xml:space="preserve"><g><g>
	<g>
		<path class="active-path"
            d="M383.071,148.928c-3.905-3.904-10.237-3.904-14.143,0l-20,20c-3.905,3.905-3.905,10.237,0,14.143    c3.907,3.906,10.238,3.905,14.143,0l20-20C386.976,159.166,386.976,152.834,383.071,148.928z"
            data-old_color="#000000" data-original="#000000" fill="#FFFFFF" />
	</g>
</g><g>
	<g>
		<path class="active-path"
            d="M143.071,148.928c-3.905-3.904-10.237-3.904-14.143,0l-20,20c-3.905,3.905-3.905,10.237,0,14.143    c3.907,3.906,10.238,3.905,14.143,0l20-20C146.976,159.166,146.976,152.834,143.071,148.928z"
            data-old_color="#000000" data-original="#000000" fill="#FFFFFF" />
	</g>
</g><g>
	<g>
		<path class="active-path"
            d="M333.071,108.928c-3.905-3.904-10.237-3.904-14.143,0l-20,20c-3.905,3.905-3.905,10.237,0,14.143    c3.907,3.906,10.238,3.905,14.143,0l20-20C336.976,119.166,336.976,112.834,333.071,108.928z"
            data-old_color="#000000" data-original="#000000" fill="#FFFFFF" />
	</g>
</g><g>
	<g>
		<path class="active-path"
            d="M213.071,108.928c-3.905-3.904-10.237-3.904-14.143,0l-20,20c-3.905,3.905-3.905,10.237,0,14.143    c3.907,3.906,10.238,3.905,14.143,0l20-20C216.976,119.166,216.976,112.834,213.071,108.928z"
            data-old_color="#000000" data-original="#000000" fill="#FFFFFF" />
	</g>
</g><g>
	<g>
		<path class="active-path"
            d="M263.071,148.928c-3.905-3.904-10.237-3.904-14.143,0l-20,20c-3.905,3.905-3.905,10.237,0,14.143    c3.907,3.906,10.238,3.905,14.143,0l20-20C266.976,159.166,266.976,152.834,263.071,148.928z"
            data-old_color="#000000" data-original="#000000" fill="#FFFFFF" />
	</g>
</g><g>
	<g>
		<path class="active-path"
            d="M512,356c0-16.542-13.458-30-30-30h-10v-32.23c0.412-0.358,0.832-0.701,1.237-1.07c6.491-5.917,20.049-9.7,28.889-9.812    c5.522-0.069,9.943-4.603,9.873-10.125c-0.069-5.479-4.532-9.874-9.997-9.874c-0.042,0-0.086,0-0.128,0.001    c-8.581,0.108-19.982,2.386-29.874,7.063V243.74c12.176-4.983,20.271-17.519,18.533-31.435C478.737,117.496,397.686,46,302,46h-92    c-95.686,0-176.737,71.496-188.533,166.301c-1.733,13.875,6.307,26.437,18.533,31.44v25.771    c-9.929-4.498-21.357-6.748-30.131-6.622c-5.522,0.072-9.94,4.608-9.868,10.131c0.072,5.478,4.535,9.868,9.997,9.868    c0.044,0,0.089,0,0.134-0.001c8.942-0.137,22.822,3.599,29.592,9.774c0.09,0.083,0.186,0.161,0.277,0.243V326H30    c-16.574,0-30,13.424-30,30c0,14.865,10.87,27.233,25.078,29.589c-2.337,6.169-2.505,12.909-0.338,19.313    C37.134,441.446,71.397,466,110,466h292c38.603,0,72.866-24.554,85.263-61.104c2.165-6.398,1.997-13.135-0.339-19.303    C500.864,383.301,512,371.17,512,356z M41.313,214.774C51.867,129.959,124.386,66,210,66h92    c85.614,0,158.133,63.959,168.687,148.779c0.722,5.779-3.787,10.811-9.356,11.184c-0.066,0.004-0.132,0.01-0.198,0.016    c-0.171,0.015-0.342,0.021-0.513,0.021H51.38C45.49,226,40.56,220.814,41.313,214.774z M413.238,277.92    c-21.975-20.039-51.502-20.039-73.477,0c-14.349,13.084-32.175,13.084-46.523,0c-21.975-20.039-51.502-20.039-73.477,0    c-14.349,13.084-32.175,13.084-46.523,0c-21.975-20.038-51.502-20.04-73.479,0.002C87.598,289.02,73.029,290.781,60,282.975V246    h392v37.555C439.241,290.654,425.047,288.689,413.238,277.92z M452,305.243V326H60v-21.057c5.407,1.871,10.956,2.807,16.5,2.806    c12.905,0,25.776-5.048,36.739-15.051c14.348-13.084,32.175-13.084,46.523,0c21.975,20.041,51.503,20.04,73.477,0    c14.349-13.084,32.176-13.084,46.523,0c21.975,20.041,51.503,20.04,73.477,0c14.348-13.085,32.175-13.083,46.523,0    C415.059,306.65,434.265,310.938,452,305.243z M468.32,398.479C458.68,426.902,432.028,446,402,446H110    c-30.028,0-56.68-19.098-66.317-47.515C41.608,392.355,46.901,386,53.46,386h405.08C465.123,386,470.382,392.385,468.32,398.479z     M482,366H30c-5.514,0-10-4.486-10-10c0-5.521,4.479-10,10-10h452c5.514,0,10,4.486,10,10C492,361.521,487.521,366,482,366z"
            data-old_color="#000000" data-original="#000000" fill="#FFFFFF" />
	</g>
</g></g> </svg>
