<?xml version="1.0"?>
<svg xmlns:xlink="http://www.w3.org/1999/xlink" style="enable-background:new 0 0 512.001 512.001;"
    height="512px" id="Layer_1" version="1.1" viewBox="0 0 512.001 512.001" width="512px" x="0px"
    xmlns="http://www.w3.org/2000/svg" y="0px" xml:space="preserve"><g><g id="XMLID_442_">
	<g id="XMLID_443_">
		<path class="active-path"
            d="M503.724,191.192c-1.186-4.541-4.567-8.075-9.046-9.453c-4.524-1.392-9.363-0.356-12.943,2.774    c-9.45,8.262-21.535,13.007-34.027,13.36c-4.141,0.117-7.402,3.568-7.285,7.709c0.117,4.14,3.533,7.388,7.709,7.285    c15.185-0.429,29.893-5.93,41.678-15.542c4.934,19.722,7.349,40.117,7.184,60.663c-0.239,29.714-5.936,58.171-16.103,84.439    C470.067,334.9,463.5,322.556,463.5,309.18v-50.42c0-10.141-3.955-19.682-11.137-26.864c-7.182-7.181-16.722-11.136-26.863-11.136    c-20.953,0-38,17.047-38,38v4.56c0,22.309-8.685,43.278-24.454,59.047C347.278,338.136,326.309,346.82,304,346.82    c-2.046,0-4.083-0.082-6.11-0.228c34.172-15.865,57.93-50.503,57.93-90.592c0-21.811-6.913-42.534-19.993-59.929    c-2.488-3.311-7.191-3.976-10.501-1.487c-3.312,2.489-3.977,7.191-1.487,10.502c11.109,14.775,16.981,32.381,16.981,50.915    c0,46.77-38.05,84.82-84.82,84.82c-46.77,0-84.82-38.05-84.82-84.82s38.05-84.82,84.82-84.82c15.704,0,31.041,4.328,44.354,12.515    c3.527,2.169,8.148,1.068,10.317-2.46c2.17-3.528,1.068-8.147-2.46-10.317c-15.678-9.641-33.732-14.737-52.212-14.737    c-12.498,0-24.464,2.316-35.5,6.529V154.6c0-14.282-5.563-27.717-15.67-37.837C194.717,106.663,181.282,101.1,167,101.1    c-29.5,0-53.5,24-53.5,53.5v17.91c0,7.882-3.07,15.292-8.639,20.863c-5.579,5.57-12.987,8.637-20.861,8.637    c-16.266,0-29.5-13.234-29.5-29.5v-47.65c0-0.261-0.013-0.518-0.039-0.772c9.01-13.663,19.471-26.526,31.331-38.38    C131.415,40.109,191.857,15,256,15c0.039,0,0.079,0,0.118,0c14.614,0.007,29.237,1.332,43.485,3.938    c-0.691,18.006,7.036,35.425,20.87,47.035c-1.863,3.644-3.402,7.458-4.58,11.348c-11.045,36.372,9.563,74.95,45.938,85.996    c6.215,1.886,12.644,2.883,19.127,2.965c5.28,15.384,15.788,28.404,29.688,36.749c3.548,2.13,8.157,0.982,10.29-2.57    c2.133-3.551,0.982-8.158-2.569-10.291c-11.121-6.677-19.468-17.19-23.502-29.601c-1.805-5.558-6.945-9.283-12.802-9.283    c-0.069,0.002-0.151,0-0.228,0c-5.303,0-10.566-0.782-15.646-2.324c-28.461-8.643-44.585-38.827-35.94-67.291    c1.01-3.336,2.358-6.597,4.009-9.693c3.058-5.735,1.599-12.86-3.47-16.944c-10.954-8.825-16.991-22.453-16.15-36.451    c0.411-6.809-4.305-12.892-10.969-14.148C288.104,1.501,272.108,0.008,256.125,0c-0.045,0-0.08,0-0.125,0    c-68.144,0-132.359,26.67-180.813,75.099C26.702,123.561,0,187.806,0,256c0,29.771,5.07,58.943,15.069,86.708    c9.66,26.823,23.684,51.723,41.681,74.008c1.482,1.835,3.651,2.788,5.839,2.788c1.655,0,3.32-0.545,4.708-1.666    c3.222-2.603,3.725-7.325,1.123-10.547C33.971,364.638,15,310.908,15,256c0-37.24,8.479-73.224,24.5-105.791v22.301    c0,24.538,19.962,44.5,44.5,44.5c11.876,0,23.049-4.625,31.464-13.027c8.406-8.407,13.036-19.584,13.036-31.473V154.6    c0-21.229,17.271-38.5,38.5-38.5c10.279,0,19.95,4.005,27.224,11.27c7.271,7.281,11.276,16.951,11.276,27.23v14.7    c0,0.206,0.014,0.409,0.031,0.611C176.027,187.274,156.18,219.361,156.18,256c0,55.041,44.779,99.82,99.82,99.82    c4.799,0,9.518-0.348,14.138-1.006c0.855,0.968,1.966,1.733,3.282,2.163c9.836,3.213,20.124,4.842,30.58,4.842    c26.314,0,51.052-10.245,69.652-28.847c18.603-18.601,28.848-43.338,28.848-69.653v-4.56c0-12.682,10.317-23,23-23    c6.135,0,11.908,2.395,16.257,6.743c4.349,4.349,6.743,10.122,6.743,16.257v50.42c0,19.392,10.055,37.217,26.447,47.294    C436.677,439.275,352.723,497,256,497c-61.438,0-119.957-23.139-164.776-65.155c-3.023-2.833-7.769-2.68-10.601,0.342    c-2.833,3.022-2.68,7.768,0.342,10.601C128.575,487.421,190.737,512,256,512c68.182,0,132.261-26.31,180.434-74.083    c48.175-47.776,75.009-111.633,75.559-179.808C512.175,235.429,509.393,212.915,503.724,191.192z"
            data-old_color="#ffffff" data-original="#000000" fill="#ffffff" id="XMLID_444_" />
        <path class="active-path"
            d="M159.191,383.376c0.012,0,0.024,0,0.036,0c4.125,0,7.479-3.334,7.499-7.465    c0.02-4.142-3.323-7.516-7.465-7.535l-0.104,0c-0.012,0-0.024,0-0.036,0c-4.125,0-7.479,3.334-7.499,7.465    c-0.02,4.142,3.323,7.516,7.465,7.535L159.191,383.376z"
            data-old_color="#ffffff" data-original="#000000" fill="#ffffff" id="XMLID_445_" />
        <path class="active-path"
            d="M203.017,381.512c0.012,0,0.024,0,0.036,0c4.125,0,7.479-3.334,7.499-7.465    c0.02-4.142-3.323-7.516-7.465-7.535l-0.104,0c-0.012,0-0.024,0-0.036,0c-4.125,0-7.479,3.334-7.499,7.465    c-0.02,4.142,3.323,7.516,7.465,7.535L203.017,381.512z"
            data-old_color="#ffffff" data-original="#000000" fill="#ffffff" id="XMLID_446_" />
        <path class="active-path"
            d="M385.071,400.501c0.013,0,0.023,0,0.036,0c4.125,0,7.479-3.335,7.499-7.465    c0.02-4.142-3.323-7.516-7.465-7.535l-0.104,0c-0.013,0-0.023,0-0.036,0c-4.125,0-7.479,3.335-7.499,7.465    c-0.02,4.142,3.323,7.516,7.465,7.535L385.071,400.501z"
            data-old_color="#ffffff" data-original="#000000" fill="#ffffff" id="XMLID_447_" />
        <path class="active-path"
            d="M281.766,467.596c0.012,0,0.023,0,0.036,0c4.125,0,7.479-3.334,7.499-7.465    c0.02-4.142-3.322-7.516-7.465-7.535l-0.104,0c-0.012,0-0.023,0-0.036,0c-4.125,0-7.479,3.334-7.499,7.465    c-0.02,4.142,3.322,7.516,7.465,7.535L281.766,467.596z"
            data-old_color="#ffffff" data-original="#000000" fill="#ffffff" id="XMLID_448_" />
        <path class="active-path"
            d="M125,250.492c4.142,0,7.5-3.358,7.5-7.5s-3.358-7.5-7.5-7.5h-0.104c-4.142,0-7.5,3.358-7.5,7.5    s3.358,7.5,7.5,7.5H125z"
            data-old_color="#ffffff" data-original="#000000" fill="#ffffff" id="XMLID_449_" />
	</g>
</g></g> </svg>
