<?xml version="1.0"?>
<svg height="512px" viewBox="0 -51 512 512" width="512px" xmlns="http://www.w3.org/2000/svg">
    <g>
        <path class="active-path"
            d="m511.921875 147.015625c-1.261719-39.152344-17.890625-75.738281-46.90625-103.140625-29.21875-27.59375-67.785156-42.789062-108.601563-42.789062-1.855468 0-3.695312.34375-5.425781 1.015624l-27.300781 10.59375c-14.503906-12.0625-34.925781-16.308593-53.949219-9.335937-13.707031 5.027344-24.652343 15.054687-30.824219 28.238281-2.378906 5.085938-3.929687 10.40625-4.664062 15.804688l-224.675781 87.179687c-5.769531 2.242188-9.574219 7.796875-9.574219 13.984375v247.195313c0 8.28125 6.714844 15 15 15h482c8.285156 0 15-6.71875 15-15v-247.195313c0-.523437-.027344-1.042968-.078125-1.550781zm-231.859375-115.488281c2.832031-1.035156 5.730469-1.527344 8.582031-1.527344 10.035157 0 19.445313 6.101562 23.058594 15.957031 2.238281 6.105469 1.945313 12.730469-.824219 18.65625-2.792968 5.96875-7.757812 10.507813-13.980468 12.789063-12.808594 4.691406-27-1.78125-31.636719-14.429688-2.242188-6.105468-1.949219-12.730468.824219-18.660156 2.792968-5.964844 7.757812-10.503906 13.976562-12.785156zm200.84375 104.464844h-392.03125l150.085938-58.238282c9.113281 19.359375 28.667968 31.179688 49.390624 31.179688 6.269532-.003906 12.648438-1.082032 18.871094-3.367188 13.707032-5.023437 24.65625-15.050781 30.824219-28.234375 5.792969-12.382812 6.726563-26.152343 2.707031-39.078125l18.394532-7.136718c61.902343 1.300781 113.71875 46.8125 121.757812 104.875zm-450.90625 30h452v39.628906c-32.367188 27.382812-81.792969 26.191406-112.65625-3.601563-2.796875-2.699219-6.539062-4.207031-10.429688-4.207031-3.886718 0-7.621093 1.507812-10.417968 4.207031-32.164063 31.050781-84.503906 31.054688-116.671875 0-2.796875-2.699219-6.539063-4.207031-10.425781-4.207031-3.886719 0-7.625 1.507812-10.417969 4.207031-32.167969 31.050781-84.507813 31.054688-116.675781 0-2.386719-2.304687-5.476563-3.75-8.769532-4.117187-4.4375-.492188-8.863281 1.015625-12.074218 4.117187-11.996094 11.582031-27.070313 19.128907-43.460938 21.984375zm0 214.769531v-126.414063c19.699219-2.515625 38.199219-10.003906 53.894531-21.851562 40.277344 30.292968 97.234375 30.292968 137.507813-.007813 40.277344 30.300781 97.242187 30.300781 137.519531 0 35.667969 26.832031 84.417969 29.898438 123.078125 9.214844v139.058594zm0 0"
            data-old_color="#000000" data-original="#000000" fill="#FFFFFF" />
    </g>
</svg>
