<?xml version="1.0" encoding="iso-8859-1"?>
<!-- Generator: Adobe Illustrator 19.0.0, SVG Export Plug-In . SVG Version: 6.00 Build 0)  -->
<svg version="1.1" id="Capa_1" xmlns="http://www.w3.org/2000/svg" xmlns:xlink="http://www.w3.org/1999/xlink" x="0px" y="0px"
	 viewBox="0 0 512 512" style="enable-background:new 0 0 512 512;" xml:space="preserve">
<path style="fill:#F0DBC2;" d="M4.339,234.305h503.322l0,0v225.627c0,28.759-23.309,52.068-52.068,52.068l0,0H4.339l0,0V234.305
	L4.339,234.305z"/>
<path id="SVGCleanerId_0" style="fill:#F2B9B8;" d="M4.339,286.373h425.22c14.379,0,26.034,11.654,26.034,26.034v121.492
	c0,14.379-11.655,26.034-26.034,26.034H4.339l0,0V286.373L4.339,286.373z"/>
<g>
	<path id="SVGCleanerId_0_1_" style="fill:#F2B9B8;" d="M4.339,286.373h425.22c14.379,0,26.034,11.654,26.034,26.034v121.492
		c0,14.379-11.655,26.034-26.034,26.034H4.339l0,0V286.373L4.339,286.373z"/>
</g>
<path style="fill:#F29C9B;" d="M4.339,234.305L308.068,52.068l0,0c103.32,0.017,189.7,78.562,199.515,181.413l0.078,0.824H4.339z"/>
<circle style="fill:#F0614A;" cx="403.525" cy="95.458" r="52.068"/>
<path style="fill:#EA5242;" d="M429.438,50.332c-1.25,38.704-32.334,69.788-71.038,71.038
	c14.267,24.967,46.071,33.644,71.038,19.387c24.966-14.267,33.644-46.071,19.387-71.038
	C444.208,61.64,437.517,54.949,429.438,50.332z"/>
<g>
	<path style="fill:#965735;" d="M412.203,78.102h-17.356C394.9,34.99,429.837,0.052,472.949,0v17.356
		C439.418,17.391,412.238,44.57,412.203,78.102z"/>
	
		<rect x="303.725" y="81.39" transform="matrix(-0.7071 0.7071 -0.7071 -0.7071 603.8752 -50.5331)" style="fill:#965735;" width="17.356" height="36.82"/>
	
		<rect x="198.557" y="143.181" transform="matrix(-0.7071 0.7071 -0.7071 -0.7071 477.7672 105.8207)" style="fill:#965735;" width="36.82" height="17.356"/>
	
		<rect x="242.982" y="168.176" transform="matrix(-0.7071 0.7071 -0.7071 -0.7071 561.5469 140.5714)" style="fill:#965735;" width="17.356" height="36.82"/>
	
		<rect x="276.641" y="143.208" transform="matrix(-0.7071 0.7071 -0.7071 -0.7071 611.083 50.6533)" style="fill:#965735;" width="36.82" height="17.356"/>
	
		<rect x="424.161" y="177.894" transform="matrix(-0.7071 0.7071 -0.7071 -0.7071 887.4422 5.5531)" style="fill:#965735;" width="36.82" height="17.356"/>
	
		<rect x="328.709" y="177.901" transform="matrix(-0.7071 0.7071 -0.7071 -0.7071 724.4998 73.06)" style="fill:#965735;" width="36.82" height="17.356"/>
	
		<rect x="137.792" y="177.937" transform="matrix(-0.7071 0.7071 -0.7071 -0.7071 398.6099 208.121)" style="fill:#965735;" width="36.82" height="17.356"/>
</g>
<path style="fill:#EBD3B7;" d="M322.681,286.373h106.878c14.379,0,26.034,11.654,26.034,26.034v121.492
	c0,14.379-11.655,26.034-26.034,26.034H121.717L61.431,512h394.162c28.759,0,52.068-23.309,52.068-52.068l0,0V234.305H382.976
	L322.681,286.373z"/>
<path style="fill:#F2AEAC;" d="M429.559,459.932c14.379,0,26.034-11.654,26.034-26.034V312.407
	c0-14.379-11.655-26.034-26.034-26.034H322.681L121.717,459.932H429.559z"/>
<rect x="4.339" y="364.475" style="fill:#F28685;" width="451.254" height="17.356"/>
<g>
</g>
<g>
</g>
<g>
</g>
<g>
</g>
<g>
</g>
<g>
</g>
<g>
</g>
<g>
</g>
<g>
</g>
<g>
</g>
<g>
</g>
<g>
</g>
<g>
</g>
<g>
</g>
<g>
</g>
</svg>
