<?xml version="1.0" encoding="iso-8859-1"?><!-- Generator: Adobe Illustrator 19.0.0, SVG Export Plug-In . SVG Version: 6.00 Build 0)  -->
<svg xmlns:xlink="http://www.w3.org/1999/xlink" style="enable-background:new 0 0 512 512;"
    id="Capa_1" version="1.1" viewBox="0 0 512 512" x="0px" xmlns="http://www.w3.org/2000/svg"
    y="0px" xml:space="preserve">
<path style="fill:#F0DBC2;" d="M4.339,234.305h503.322l0,0v225.627c0,28.759-23.309,52.068-52.068,52.068l0,0H4.339l0,0V234.305
	L4.339,234.305z" />
    <path style="fill:#F2B9B8;" d="M4.339,286.373h425.22c14.379,0,26.034,11.654,26.034,26.034v121.492
	c0,14.379-11.655,26.034-26.034,26.034H4.339l0,0V286.373L4.339,286.373z" id="SVGCleanerId_0" />
    <g>
	<path style="fill:#F2B9B8;" d="M4.339,286.373h425.22c14.379,0,26.034,11.654,26.034,26.034v121.492
		c0,14.379-11.655,26.034-26.034,26.034H4.339l0,0V286.373L4.339,286.373z"
        id="SVGCleanerId_0_1_" />
</g>
    <path style="fill:#F29C9B;"
        d="M4.339,234.305L308.068,52.068l0,0c103.32,0.017,189.7,78.562,199.515,181.413l0.078,0.824H4.339z" />
    <circle style="fill:#F0614A;" cx="403.525" cy="95.458" r="52.068" />
    <path style="fill:#EA5242;" d="M429.438,50.332c-1.25,38.704-32.334,69.788-71.038,71.038
	c14.267,24.967,46.071,33.644,71.038,19.387c24.966-14.267,33.644-46.071,19.387-71.038
	C444.208,61.64,437.517,54.949,429.438,50.332z" />
    <g>
	<path style="fill:#965735;" d="M412.203,78.102h-17.356C394.9,34.99,429.837,0.052,472.949,0v17.356
		C439.418,17.391,412.238,44.57,412.203,78.102z" />

        <rect style="fill:#965735;" height="36.82"
            transform="matrix(-0.7071 0.7071 -0.7071 -0.7071 603.8752 -50.5331)" width="17.356"
            x="303.725" y="81.39" />

        <rect style="fill:#965735;" height="17.356"
            transform="matrix(-0.7071 0.7071 -0.7071 -0.7071 477.7672 105.8207)" width="36.82"
            x="198.557" y="143.181" />

        <rect style="fill:#965735;" height="36.82"
            transform="matrix(-0.7071 0.7071 -0.7071 -0.7071 561.5469 140.5714)" width="17.356"
            x="242.982" y="168.176" />

        <rect style="fill:#965735;" height="17.356"
            transform="matrix(-0.7071 0.7071 -0.7071 -0.7071 611.083 50.6533)" width="36.82"
            x="276.641" y="143.208" />

        <rect style="fill:#965735;" height="17.356"
            transform="matrix(-0.7071 0.7071 -0.7071 -0.7071 887.4422 5.5531)" width="36.82"
            x="424.161" y="177.894" />

        <rect style="fill:#965735;" height="17.356"
            transform="matrix(-0.7071 0.7071 -0.7071 -0.7071 724.4998 73.06)" width="36.82"
            x="328.709" y="177.901" />

        <rect style="fill:#965735;" height="17.356"
            transform="matrix(-0.7071 0.7071 -0.7071 -0.7071 398.6099 208.121)" width="36.82"
            x="137.792" y="177.937" />
</g>
    <path style="fill:#EBD3B7;" d="M322.681,286.373h106.878c14.379,0,26.034,11.654,26.034,26.034v121.492
	c0,14.379-11.655,26.034-26.034,26.034H121.717L61.431,512h394.162c28.759,0,52.068-23.309,52.068-52.068l0,0V234.305H382.976
	L322.681,286.373z" />
    <path style="fill:#F2AEAC;" d="M429.559,459.932c14.379,0,26.034-11.654,26.034-26.034V312.407
	c0-14.379-11.655-26.034-26.034-26.034H322.681L121.717,459.932H429.559z" />
    <rect style="fill:#F28685;" height="17.356" width="451.254" x="4.339" y="364.475" />
    <g>
</g>
    <g>
</g>
    <g>
</g>
    <g>
</g>
    <g>
</g>
    <g>
</g>
    <g>
</g>
    <g>
</g>
    <g>
</g>
    <g>
</g>
    <g>
</g>
    <g>
</g>
    <g>
</g>
    <g>
</g>
    <g>
</g>
</svg>
