<svg height="464" viewBox="0 0 464 464.0004" width="464" xmlns="http://www.w3.org/2000/svg">
    <path
        d="m357.738281 373.28125-11.519531 13.4375c-4.5625 5.332031-11.226562 8.402344-18.242188 8.402344-7.015624 0-13.679687-3.070313-18.238281-8.402344l-11.519531-13.4375c-4.5625-5.332031-11.226562-8.402344-18.242188-8.402344-7.015624 0-13.679687 3.070313-18.238281 8.402344l-11.519531 13.4375c-4.5625 5.332031-11.226562 8.402344-18.242188 8.402344-7.015624 0-13.679687-3.070313-18.238281-8.402344l-11.519531-13.4375c-4.5625-5.332031-11.226562-8.402344-18.242188-8.402344-7.015624 0-13.679687 3.070313-18.238281 8.402344l-11.519531 13.4375c-4.5625 5.332031-11.226562 8.402344-18.242188 8.402344-7.015624 0-13.679687-3.070313-18.238281-8.402344l-11.519531-13.4375c-4.5625-5.332031-11.226562-8.402344-18.242188-8.402344-7.015624 0-13.679687 3.070313-18.238281 8.402344l-11.023437 12.941406c44 49.472656 107.050781 77.777344 173.261718 77.777344 66.210938 0 129.261719-28.304688 173.265626-77.777344l-11.023438-12.941406c-4.5625-5.332031-11.226562-8.402344-18.242188-8.402344-7.015624 0-13.679687 3.070313-18.238281 8.402344zm0 0"
        fill="#a97c50" />
    <path
        d="m231.976562 0c-91.382812.0078125-174.246093 53.660156-211.648437 137.035156-37.40625 83.375-22.382813 180.941406 38.367187 249.203125l11.042969-12.957031c4.558594-5.332031 11.222657-8.402344 18.238281-8.402344 7.015626 0 13.679688 3.070313 18.242188 8.402344l11.519531 13.4375c4.558594 5.332031 11.222657 8.402344 18.238281 8.402344 7.015626 0 13.679688-3.070313 18.242188-8.402344l11.519531-13.4375c4.558594-5.332031 11.222657-8.402344 18.238281-8.402344 7.015626 0 13.679688 3.070313 18.242188 8.402344l11.519531 13.4375c4.558594 5.332031 11.222657 8.402344 18.238281 8.402344 7.015626 0 13.679688-3.070313 18.242188-8.402344l11.519531-13.4375c4.558594-5.332031 11.222657-8.402344 18.238281-8.402344 7.015626 0 13.679688 3.070313 18.242188 8.402344l11.519531 13.4375c4.558594 5.332031 11.222657 8.402344 18.238281 8.402344 7.015626 0 13.679688-3.070313 18.242188-8.402344l11.519531-13.4375c4.558594-5.332031 11.222657-8.402344 18.238281-8.402344 7.015626 0 13.679688 3.070313 18.242188 8.402344l11.039062 12.957031c60.753907-68.261719 75.773438-165.828125 38.371094-249.203125-37.40625-83.375-120.269531-137.0273435-211.652344-137.035156zm0 336c-57.4375 0-104-46.5625-104-104s46.5625-104 104-104 104 46.5625 104 104c-.050781 57.414062-46.582031 103.945312-104 104zm0 0"
        fill="#f072ae" />
    <path
        d="m243.976562 463.679688c-4 .242187-8 .320312-12 .320312-66.222656.054688-129.300781-28.25-173.28125-77.761719l11.042969-12.957031c.382813-.492188.8125-.949219 1.277344-1.359375 3.679687 4.957031 7.601563 9.679687 11.679687 14.316406 41.214844 46.378907 99.316407 74.277344 161.28125 77.441407zm0 0"
        fill="#7f5d3c" />
    <path
        d="m243.898438.320312c-3.921876-.242187-7.921876-.320312-11.921876-.320312-91.382812.0078125-174.246093 53.660156-211.648437 137.035156-37.40625 83.375-22.382813 180.941406 38.367187 249.203125l11.042969-12.957031c.382813-.492188.8125-.949219 1.277344-1.359375-51.851563-68.460937-61.621094-159.96875-25.398437-237.832031 36.226562-77.863282 112.515624-129.335938 198.28125-133.769532zm0 0"
        fill="#d26498" />
    <g fill="#f1f2f2">
        <path
            d="m247.976562 56c0 8.835938-7.164062 16-16 16-8.835937 0-16-7.164062-16-16s7.164063-16 16-16c8.835938 0 16 7.164062 16 16zm0 0" />
        <path
            d="m79.976562 192c0 8.835938-7.164062 16-16 16-8.835937 0-16-7.164062-16-16s7.164063-16 16-16c8.835938 0 16 7.164062 16 16zm0 0" />
        <path
            d="m423.976562 264c0 8.835938-7.164062 16-16 16-8.835937 0-16-7.164062-16-16s7.164063-16 16-16c8.835938 0 16 7.164062 16 16zm0 0" />
    </g>
    <path
        d="m111.976562 104c0 4.417969-3.582031 8-8 8-4.417968 0-8-3.582031-8-8s3.582032-8 8-8c4.417969 0 8 3.582031 8 8zm0 0"
        fill="#ffcd00" />
    <path
        d="m383.976562 168c0 4.417969-3.582031 8-8 8-4.417968 0-8-3.582031-8-8s3.582032-8 8-8c4.417969 0 8 3.582031 8 8zm0 0"
        fill="#ffcd00" />
    <path
        d="m135.976562 328c0 4.417969-3.582031 8-8 8-4.417968 0-8-3.582031-8-8s3.582032-8 8-8c4.417969 0 8 3.582031 8 8zm0 0"
        fill="#ffcd00" />
    <path
        d="m306.296875 77.679688c3.15625 3.09375 8.207031 3.09375 11.359375 0 .707031-.777344 1.273438-1.671876 1.679688-2.640626.855468-1.9375.855468-4.140624 0-6.078124-.40625-.96875-.972657-1.863282-1.679688-2.640626-3.207031-2.960937-8.152344-2.960937-11.359375 0-.707031.777344-1.273437 1.671876-1.679687 2.640626-.851563 1.9375-.851563 4.140624 0 6.078124.40625.96875.972656 1.863282 1.679687 2.640626zm0 0"
        fill="#ff9811" />
    <path
        d="m159.976562 56c2.121094-.015625 4.15625-.847656 5.679688-2.320312 3.09375-3.15625 3.09375-8.203126 0-11.359376l-1.199219-.960937c-.445312-.300781-.929687-.542969-1.441406-.71875-.476563-.242187-.996094-.40625-1.527344-.480469-2.609375-.523437-5.308593.285156-7.199219 2.160156-.722656.765626-1.292968 1.660157-1.679687 2.640626-.40625.960937-.621094 1.996093-.632813 3.039062.027344 2.117188.855469 4.148438 2.320313 5.679688 1.523437 1.476562 3.558594 2.308593 5.679687 2.320312zm0 0"
        fill="#ff9811" />
    <path
        d="m116.9375 144.640625c-.980469.386719-1.875.957031-2.640625 1.679687-3.09375 3.15625-3.09375 8.203126 0 11.359376.75.742187 1.652344 1.3125 2.640625 1.679687.960938.410156 1.992188.628906 3.039062.640625 2.121094-.015625 4.15625-.847656 5.679688-2.320312 3.09375-3.15625 3.09375-8.203126 0-11.359376l-1.199219-.960937c-.445312-.300781-.929687-.542969-1.441406-.71875-.476563-.242187-.996094-.40625-1.527344-.480469-1.53125-.324218-3.121093-.15625-4.550781.480469zm0 0"
        fill="#57a4ff" />
    <path
        d="m34.296875 253.679688c2.289063 2.308593 5.746094 3 8.746094 1.753906 3.003906-1.246094 4.953125-4.183594 4.933593-7.433594.023438-1.050781-.195312-2.089844-.640624-3.039062-.386719-.980469-.957032-1.875-1.679688-2.640626-.765625-.722656-1.660156-1.292968-2.640625-1.679687-2.980469-1.214844-6.402344-.558594-8.71875 1.679687-.738281.75-1.3125 1.652344-1.679687 2.640626-.855469 1.9375-.855469 4.140624 0 6.078124.386718.980469.957031 1.875 1.679687 2.640626zm0 0"
        fill="#57a4ff" />
    <path
        d="m85.578125 322.320312c-1.863281-1.929687-4.578125-2.769531-7.207031-2.234374-2.625.53125-4.796875 2.371093-5.753906 4.875-.855469 1.9375-.855469 4.140624 0 6.078124.726562 2.011719 2.308593 3.59375 4.320312 4.320313 2.957031 1.21875 6.355469.558594 8.640625-1.679687 1.511719-1.503907 2.375-3.542969 2.398437-5.679688-.039062-2.132812-.898437-4.164062-2.398437-5.679688zm0 0"
        fill="#f1f2f2" />
    <path
        d="m330.296875 346.320312c-3.09375 3.15625-3.09375 8.203126 0 11.359376 1.523437 1.476562 3.558594 2.308593 5.679687 2.320312 3.609376-.019531 6.761719-2.457031 7.6875-5.949219.925782-3.488281-.601562-7.167969-3.726562-8.976562-3.128906-1.808594-7.078125-1.296875-9.640625 1.246093zm0 0"
        fill="#f1f2f2" />
    <path
        d="m359.976562 296c2.117188-.03125 4.144532-.859375 5.679688-2.320312.707031-.777344 1.273438-1.671876 1.679688-2.640626.855468-1.9375.855468-4.140624 0-6.078124-.40625-.96875-.972657-1.863282-1.679688-2.640626-3.207031-2.960937-8.152344-2.960937-11.359375 0-.707031.777344-1.273437 1.671876-1.679687 2.640626-.449219.949218-.667969 1.988281-.640626 3.039062-.019531 2.128906.816407 4.175781 2.320313 5.679688 1.503906 1.507812 3.550781 2.34375 5.679687 2.320312zm0 0"
        fill="#ff9811" />
    <path
        d="m418.296875 213.679688c.378906.34375.777344.664062 1.191406.960937.449219.300781.9375.542969 1.449219.71875.453125.230469.9375.394531 1.4375.480469.53125.089844 1.066406.144531 1.601562.160156 2.128907.023438 4.175782-.8125 5.679688-2.320312 1.507812-1.503907 2.34375-3.550782 2.320312-5.679688-.011718-1.046875-.230468-2.078125-.640624-3.039062-1.371094-3.613282-5.191407-5.660157-8.960938-4.800782-.5.085938-.984375.25-1.4375.480469-.511719.175781-1 .417969-1.449219.71875l-1.191406.960937c-.722656.765626-1.292969 1.660157-1.679687 2.640626-.449219.949218-.667969 1.988281-.640626 3.039062.027344 2.117188.855469 4.148438 2.320313 5.679688zm0 0"
        fill="#57a4ff" />
    <path
        d="m322.296875 133.679688c3.15625 3.09375 8.207031 3.09375 11.359375 0 .320312-.398438.640625-.800782.960938-1.28125.574218-.875.976562-1.851563 1.191406-2.878907.101562-.5.15625-1.007812.167968-1.519531.023438-1.050781-.195312-2.089844-.640624-3.039062-.40625-.96875-.972657-1.863282-1.679688-2.640626-3.207031-2.960937-8.152344-2.960937-11.359375 0-.707031.777344-1.273437 1.671876-1.679687 2.640626-.410157.960937-.628907 1.992187-.640626 3.039062.027344 2.117188.855469 4.148438 2.320313 5.679688zm0 0"
        fill="#f1f2f2" />
    <path
        d="m362.320312 101.65625c3.140626 3.03125 8.128907 2.988281 11.214844-.097656 3.085938-3.085938 3.128906-8.074219.097656-11.214844l-8-8c-3.140624-3.03125-8.128906-2.988281-11.214843.097656-3.085938 3.085938-3.128907 8.074219-.097657 11.214844zm0 0"
        fill="#ffcd00" />
    <path
        d="m162.320312 82.34375c-3.121093 3.125-3.121093 8.1875 0 11.3125l8 8c3.140626 3.03125 8.128907 2.988281 11.214844-.097656 3.085938-3.085938 3.128906-8.074219.097656-11.214844l-8-8c-3.125-3.121094-8.1875-3.121094-11.3125 0zm0 0"
        fill="#7ed63e" />
    <path
        d="m258.320312 109.65625c3.125 3.121094 8.1875 3.121094 11.3125 0l8-8c3.03125-3.140625 2.988282-8.128906-.097656-11.214844-3.085937-3.085937-8.074218-3.128906-11.214844-.097656l-8 8c-3.121093 3.125-3.121093 8.1875 0 11.3125zm0 0"
        fill="#ff3051" />
    <path
        d="m90.320312 250.34375-8 8c-2.078124 2.007812-2.914062 4.984375-2.179687 7.78125.730469 2.796875 2.914063 4.980469 5.710937 5.710938 2.796876.734374 5.773438-.101563 7.78125-2.179688l8-8c3.03125-3.140625 2.988282-8.128906-.097656-11.214844-3.085937-3.085937-8.074218-3.128906-11.214844-.097656zm0 0"
        fill="#7ed63e" />
    <path
        d="m389.632812 314.34375c-3.140624-3.03125-8.128906-2.988281-11.214843.097656-3.085938 3.085938-3.128907 8.074219-.097657 11.214844l8 8c3.140626 3.03125 8.128907 2.988281 11.214844-.097656 3.085938-3.085938 3.128906-8.074219.097656-11.214844zm0 0"
        fill="#ff3051" />
    <path
        d="m381.632812 210.34375c-3.125-3.121094-8.1875-3.121094-11.3125 0l-8 8c-2.078124 2.007812-2.914062 4.984375-2.179687 7.78125.730469 2.796875 2.914063 4.980469 5.710937 5.710938 2.796876.734374 5.773438-.101563 7.78125-2.179688l8-8c3.125-3.125 3.125-8.1875 0-11.3125zm0 0"
        fill="#ffcd00" />
    <path
        d="m407.976562 160c4.417969 0 8-3.582031 8-8v-16c0-4.417969-3.582031-8-8-8-4.417968 0-8 3.582031-8 8v16c0 4.417969 3.582032 8 8 8zm0 0"
        fill="#7ed63e" />
    <path
        d="m53.632812 290.34375-8-8c-2.007812-2.078125-4.984374-2.914062-7.78125-2.179688-2.796874.730469-4.980468 2.914063-5.710937 5.710938-.734375 2.796875.101563 5.773438 2.179687 7.78125l8 8c3.140626 3.03125 8.128907 2.988281 11.214844-.097656 3.085938-3.085938 3.128906-8.074219.097656-11.214844zm0 0"
        fill="#ffcd00" />
    <path
        d="m55.976562 144c2.121094 0 4.15625-.84375 5.65625-2.34375l8-8c3.03125-3.140625 2.988282-8.128906-.097656-11.214844-3.085937-3.085937-8.074218-3.128906-11.214844-.097656l-8 8c-2.285156 2.289062-2.972656 5.730469-1.734374 8.71875 1.238281 2.988281 4.15625 4.9375 7.390624 4.9375zm0 0"
        fill="#ff3051" />
</svg>