<?xml version="1.0" encoding="iso-8859-1"?>
<!-- Generator: Adobe Illustrator 18.0.0, SVG Export Plug-In . SVG Version: 6.00 Build 0)  -->
<!DOCTYPE svg PUBLIC "-//W3C//DTD SVG 1.1//EN" "http://www.w3.org/Graphics/SVG/1.1/DTD/svg11.dtd">
<svg version="1.1" id="Capa_1" xmlns="http://www.w3.org/2000/svg" xmlns:xlink="http://www.w3.org/1999/xlink" x="0px" y="0px"
	 viewBox="0 0 55.866 55.866" style="enable-background:new 0 0 55.866 55.866;" xml:space="preserve">
<g>
	<path style="fill:#FBD490;" d="M35.486,55.866H20.344c-0.935,0-1.723-0.698-1.834-1.625l-2.568-21.375h23.946L37.32,54.241
		C37.209,55.168,36.421,55.866,35.486,55.866z"/>
	<path style="fill:#EEAF4B;" d="M40.324,32.866H15.506c-1.794,0-3.248-1.404-3.248-3.135l-0.921-4.865h33.155l-0.921,4.865
		C43.572,31.463,42.117,32.866,40.324,32.866z"/>
	<path style="fill:#F2ECD3;" d="M11.899,24.866h32.069c0.928-1.007,1.449-2.117,1.449-3.285c0-1.631-1.007-3.149-2.737-4.429
		c0.107-0.363,0.164-0.735,0.164-1.114c0-2.034-1.604-3.878-4.206-5.232c0,0,0.069-11.698-9.47-10.753c0,0,3.076,4.981-1.234,5.025
		C21.93,5.142,17.062,7.273,17.062,9.978c0,0.283,1.252,0.559,1.354,0.829c-2.602,1.354-5.393,3.198-5.393,5.232
		c0,0.378,1.286,0.75,1.393,1.114c-1.73,1.28-3.966,2.799-3.966,4.429C10.45,22.75,10.971,23.86,11.899,24.866z"/>
	<path style="fill:#FBD490;" d="M25.416,11.866h-3c-0.552,0-1-0.447-1-1s0.448-1,1-1h3c0.552,0,1,0.447,1,1
		S25.969,11.866,25.416,11.866z"/>
	<path style="fill:#FBD490;" d="M34.416,11.866h-2c-0.552,0-1-0.447-1-1s0.448-1,1-1h2c0.552,0,1,0.447,1,1
		S34.969,11.866,34.416,11.866z"/>
	<g>
		<path style="fill:#FBD490;" d="M25.412,17.866h-0.996c-0.552,0-1-0.447-1-1s0.448-1,1-1h0.996c0.552,0,1,0.447,1,1
			S25.965,17.866,25.412,17.866z"/>
		<path style="fill:#FBD490;" d="M31.826,17.866h-1.833c-0.552,0-1-0.447-1-1s0.448-1,1-1h1.833c0.552,0,1,0.447,1,1
			S32.378,17.866,31.826,17.866z"/>
		<path style="fill:#FBD490;" d="M37.416,17.866H36.42c-0.552,0-1-0.447-1-1s0.448-1,1-1h0.996c0.552,0,1,0.447,1,1
			S37.969,17.866,37.416,17.866z"/>
	</g>
	<path style="fill:#FBD490;" d="M20.416,17.866h-1c-0.552,0-1-0.447-1-1s0.448-1,1-1h1c0.552,0,1,0.447,1,1
		S20.969,17.866,20.416,17.866z"/>
	<g>
		<polygon style="fill:#EEAF4B;" points="28.123,51.159 25.416,48.452 22.709,51.159 24.123,52.574 25.416,51.281 26.709,52.574 		
			"/>
		<polygon style="fill:#EEAF4B;" points="35.123,51.159 32.416,48.452 29.709,51.159 31.123,52.574 32.416,51.281 33.709,52.574 		
			"/>
		<polygon style="fill:#EEAF4B;" points="18.416,41.281 19.709,42.574 21.123,41.159 18.416,38.452 16.709,40.159 18.123,41.574 		
			"/>
		<polygon style="fill:#EEAF4B;" points="24.123,42.574 25.416,41.281 26.709,42.574 28.123,41.159 25.416,38.452 22.709,41.159 		
			"/>
		<polygon style="fill:#EEAF4B;" points="31.123,42.574 32.416,41.281 33.709,42.574 35.123,41.159 32.416,38.452 29.709,41.159 		
			"/>
		<polygon style="fill:#EEAF4B;" points="18.709,46.159 20.123,47.574 21.416,46.281 22.709,47.574 24.123,46.159 21.416,43.452 		
			"/>
		<polygon style="fill:#EEAF4B;" points="25.709,46.159 27.123,47.574 28.416,46.281 29.709,47.574 31.123,46.159 28.416,43.452 		
			"/>
		<polygon style="fill:#EEAF4B;" points="32.709,46.159 34.123,47.574 35.416,46.281 36.709,47.574 38.123,46.159 35.416,43.452 		
			"/>
		<polygon style="fill:#EEAF4B;" points="21.416,36.281 22.709,37.574 24.123,36.159 21.416,33.452 18.709,36.159 20.123,37.574 		
			"/>
		<polygon style="fill:#EEAF4B;" points="28.416,36.281 29.709,37.574 31.123,36.159 28.416,33.452 25.709,36.159 27.123,37.574 		
			"/>
		<polygon style="fill:#EEAF4B;" points="35.416,36.281 36.709,37.574 38.123,36.159 35.416,33.452 32.709,36.159 34.123,37.574 		
			"/>
		<polygon style="fill:#EEAF4B;" points="37.709,40.159 36.709,41.159 38.123,42.574 38.803,41.894 38.872,41.322 		"/>
		<path style="fill:#EEAF4B;" d="M32.709,55.159l0.707,0.707h1.414l0.586-0.586l0.523,0.523c0.694-0.176,1.234-0.742,1.361-1.468
			l-1.883-1.883L32.709,55.159z"/>
		<polygon style="fill:#EEAF4B;" points="25.709,55.159 26.416,55.866 27.83,55.866 28.416,55.281 29.002,55.866 30.416,55.866 
			31.123,55.159 28.416,52.452 		"/>
		<path style="fill:#EEAF4B;" d="M18.819,55.05c0.334,0.493,0.893,0.817,1.525,0.817h0.486l0.586-0.586l0.586,0.586h1.414
			l0.707-0.707l-2.707-2.707L18.819,55.05z"/>
		<polygon style="fill:#EEAF4B;" points="21.123,51.159 19.123,49.159 18.031,50.252 18.118,50.983 19.709,52.574 		"/>
	</g>
</g>
<g>
</g>
<g>
</g>
<g>
</g>
<g>
</g>
<g>
</g>
<g>
</g>
<g>
</g>
<g>
</g>
<g>
</g>
<g>
</g>
<g>
</g>
<g>
</g>
<g>
</g>
<g>
</g>
<g>
</g>
</svg>
