<svg height="469pt" viewBox="0 0 469 469.33335" width="469pt" xmlns="http://www.w3.org/2000/svg"><path d="m.167969 469.332031 469.332031-149.332031c0-176.730469-143.269531-320-320-320zm0 0" fill="#f59707"/><path d="m245.5 213.3125c-14.148438.042969-27.726562-5.574219-37.707031-15.605469l15.082031-15.082031c12.082031 12.0625 33.207031 12.0625 45.25 0 12.472656-12.503906 12.472656-32.746094 0-45.25l15.082031-15.082031c15.257813 15.246093 19.824219 38.183593 11.566407 58.113281-8.253907 19.925781-27.703126 32.914062-49.273438 32.90625zm0 0" fill="#ef7f00"/><path d="m26.507812 416.0625 414.835938-131.761719 12.917969 40.667969-414.835938 131.761719zm0 0" fill="#e76400"/><path d="m384.167969 320c0-129.394531-105.273438-234.667969-234.667969-234.667969-8.835938-.011719-17.445312-2.789062-24.625-7.945312l-13.167969 41.394531c11.707031 5.976562 24.648438 9.132812 37.792969 9.21875 105.875 0 192 86.136719 192 192 .082031 13.144531 3.242188 26.085938 9.21875 37.792969l41.390625-13.167969c-5.152344-7.179688-7.929687-15.789062-7.941406-24.625zm0 0" fill="#e76400"/><path d="m149.5 0c-23.5625 0-42.667969 19.101562-42.667969 42.667969 0 23.5625 19.105469 42.664062 42.667969 42.664062 129.601562 0 234.667969 105.066407 234.667969 234.667969 0 23.5625 19.101562 42.667969 42.664062 42.667969 23.566407 0 42.667969-19.105469 42.667969-42.667969 0-176.730469-143.269531-320-320-320zm0 0" fill="#fdcf6d"/><path d="m469.5 320c0 23.5625-19.101562 42.667969-42.667969 42.667969-23.5625 0-42.664062-19.105469-42.664062-42.667969s19.101562-42.667969 42.664062-42.667969c23.566407 0 42.667969 19.105469 42.667969 42.667969zm0 0" fill="#fdbc34"/><path d="m448.167969 320c0 11.78125-9.550781 21.332031-21.335938 21.332031-11.78125 0-21.332031-9.550781-21.332031-21.332031s9.550781-21.332031 21.332031-21.332031c11.785157 0 21.335938 9.550781 21.335938 21.332031zm0 0" fill="#fdab00"/><path d="m138.832031 170.667969v-42.667969c5.894531.003906 10.679688-4.773438 10.679688-10.667969s-4.785157-10.671875-10.679688-10.664062v-42.667969c29.457031 0 53.335938 23.878906 53.335938 53.332031 0 29.457031-23.878907 53.335938-53.335938 53.335938zm0 0" fill="#c82e25"/><path d="m96.167969 320c-29.457031 0-53.335938-23.878906-53.335938-53.332031 0-29.457031 23.878907-53.335938 53.335938-53.335938v42.667969c-5.890625 0-10.667969 4.777344-10.667969 10.667969s4.777344 10.664062 10.667969 10.664062zm0 0" fill="#c82e25"/><path d="m309.5 277.332031c-29.441406-.03125-53.300781-23.890625-53.332031-53.332031h42.664062c-.003906 5.894531 4.773438 10.675781 10.667969 10.675781s10.671875-4.78125 10.667969-10.675781h42.664062c-.03125 29.441406-23.890625 53.300781-53.332031 53.332031zm0 0" fill="#c82e25"/><path d="m170.832031 319.980469c-16.976562.050781-33.273437-6.695313-45.25-18.730469l15.085938-15.082031c16.082031 16.082031 44.25 16.082031 60.332031 0 16.640625-16.671875 16.640625-43.664063 0-60.335938l15.082031-15.082031c18.308594 18.296875 23.785157 45.824219 13.878907 69.738281-9.90625 23.910157-33.246094 39.5-59.128907 39.492188zm0 0" fill="#ef7f00"/><g fill="#8b2800"><path d="m213.5 256c0 23.5625-19.101562 42.667969-42.667969 42.667969-23.5625 0-42.664062-19.105469-42.664062-42.667969s19.101562-42.667969 42.664062-42.667969c23.566407 0 42.667969 19.105469 42.667969 42.667969zm0 0"/><path d="m277.5 330.667969c0 17.671875-14.328125 32-32 32s-32-14.328125-32-32c0-17.675781 14.328125-32 32-32s32 14.324219 32 32zm0 0"/><path d="m85.5 384c0 11.78125-9.550781 21.332031-21.332031 21.332031-11.785157 0-21.335938-9.550781-21.335938-21.332031s9.550781-21.332031 21.335938-21.332031c11.78125 0 21.332031 9.550781 21.332031 21.332031zm0 0"/><path d="m277.5 160c0 17.671875-14.328125 32-32 32s-32-14.328125-32-32 14.328125-32 32-32 32 14.328125 32 32zm0 0"/></g><path d="m384.8125 239.84375c-.1875-.730469-21.042969-79.136719-98.769531-137.449219-55.75-41.800781-147.523438-47.519531-148.4375-47.570312l2.457031-42.605469c4.269531.25 105.644531 6.59375 171.5625 56.050781 90.355469 67.761719 113.625 157.4375 114.5625 161.21875zm0 0" fill="#fee3aa"/></svg>